<?xml version="1.0" encoding="utf-8"?>
<!-- Generator: Adobe Illustrator 15.1.0, SVG Export Plug-In . SVG Version: 6.00 Build 0)  -->
<!DOCTYPE svg PUBLIC "-//W3C//DTD SVG 1.1//EN" "http://www.w3.org/Graphics/SVG/1.1/DTD/svg11.dtd">
<svg version="1.1" id="Black" xmlns="http://www.w3.org/2000/svg" xmlns:xlink="http://www.w3.org/1999/xlink" x="0px" y="0px"
	 width="108px" height="108px" viewBox="0 0 108 108" enable-background="new 0 0 108 108" xml:space="preserve">
<circle fill="none" stroke="#000000" stroke-miterlimit="10" cx="54" cy="54" r="48"/>
<path fill="#010101" d="M62.952,55.486l3.185-3.104c0.958-0.934,0.659-1.855-0.665-2.048l-4.401-0.64
	c-1.323-0.192-2.491-0.362-2.594-0.377c-0.104-0.015-0.23-0.112-0.281-0.217c-0.051-0.104-0.579-1.171-1.17-2.37l-1.949-3.95
	c-0.297-0.6-0.687-0.899-1.077-0.899c-0.391,0-0.78,0.3-1.076,0.899l-1.939,3.929c-0.592,1.2-1.122,2.271-1.176,2.381
	c-0.054,0.11-0.183,0.211-0.287,0.227c-0.104,0.015-1.271,0.185-2.595,0.377l-4.399,0.64c-1.324,0.192-1.623,1.114-0.665,2.048
	l3.032,2.955c0.958,0.934,1.837,1.792,1.953,1.904c0.117,0.114,0.199,0.284,0.183,0.375c-0.016,0.093-0.213,1.246-0.439,2.564
	l-0.758,4.423c-0.164,0.955,0.203,1.518,0.868,1.518c0.253,0,0.548-0.082,0.874-0.252l3.872-2.035
	c1.184-0.623,2.243-1.18,2.353-1.238c0.053-0.027,0.124-0.042,0.195-0.042c0.077,0,0.156,0.017,0.217,0.05
	c0.116,0.061,1.181,0.62,2.364,1.242l3.849,2.023c0.326,0.17,0.621,0.252,0.874,0.252c0.665,0,1.031-0.562,0.868-1.518l-0.75-4.371
	c-0.226-1.317-0.426-2.482-0.444-2.59c-0.018-0.106,0.028-0.253,0.103-0.325C61.149,57.243,61.994,56.42,62.952,55.486z"/>
</svg>
